<?xml version="1.0" encoding="utf-8"?>
<!-- Generator: Adobe Illustrator 23.0.6, SVG Export Plug-In . SVG Version: 6.00 Build 0)  -->
<svg version="1.1" id="Calque_1" xmlns="http://www.w3.org/2000/svg" xmlns:xlink="http://www.w3.org/1999/xlink" x="0px" y="0px"
	 viewBox="0 0 841.89 595.28" style="enable-background:new 0 0 841.89 595.28;" xml:space="preserve">
<style type="text/css">
	.st0{font-family:'Montserrat-Regular';}
	.st1{font-size:100px;}
	.st2{fill:#FFFFFF;}
</style>
<text transform="matrix(1 0 0 1 271.3165 327.4001)" class="st0 st1">shec</text>
<path d="M535.88,302.36c-4.36-0.12-8.38-1.37-12.13-3.59c-1.66-0.98-1.79-0.88-2.02,1.07c-0.61,5.31,1.14,9.88,4.2,14.1
	c4.08,5.61,8.12,11.26,12.19,16.88c0.85,1.17,1.34,2.38,0.76,3.82c-0.87,2.2-3.71,3.02-5.24,1.28c-6.94-7.86-14.57-15.23-19.6-24.57
	c-5.95-11.07-4.64-21.7,2.79-31.68c0.2-0.26,0.43-0.5,0.62-0.77c0.81-1.14,1.47-1.14,2.35,0.04c2.47,3.35,5.09,6.58,7.54,9.93
	c3.2,4.39,7.56,6.28,12.87,6.31c0.55,0,1.09,0,1.64,0.01c2.28,0.02,2.72,0.59,2.01,2.79c-0.99,3.05-3.48,4.01-6.34,4.37
	C536.98,302.42,536.43,302.36,535.88,302.36z"/>
<path d="M571.78,304.41c-0.05,4.95-1.96,10.6-6.32,15.37c-0.81,0.88-1.32,1.1-2.13-0.02c-1.6-2.22-3.3-4.37-4.98-6.52
	c-0.6-0.77-0.71-1.4-0.2-2.35c3.22-6.05,3.3-12.36,1.27-18.77c-0.61-1.93-1.44-3.78-2.13-5.68c-0.93-2.53-1.05-5.13-0.54-7.76
	c0.12-0.63,0.35-1.28,0.66-1.84c1.52-2.76,2.19-2.8,3.88-0.22c3.02,4.62,6.27,9.1,8.22,14.35
	C570.97,294.85,571.77,298.83,571.78,304.41z"/>
<path d="M524.61,268.75c0.03-1.86,0.68-2.86,1.94-3.45c1.28-0.6,2.44-0.42,3.5,0.5c1.26,1.09,2.11,2.51,3.11,3.81
	c3.39,4.44,6.73,8.91,10.15,13.32c0.71,0.91,0.77,1.58-0.08,2.39c-0.99,0.94-1.92,1.95-2.87,2.93c-0.66,0.69-1.15,0.57-1.71-0.18
	c-4.36-5.8-8.75-11.58-13.14-17.37C524.97,269.98,524.59,269.21,524.61,268.75z"/>
<path d="M532.51,291.31c-1.16,0.26-2.04-0.37-2.83-1.44c-3.13-4.22-6.34-8.38-9.51-12.56c-1.28-1.69-1.11-3.73,0.39-5
	c1.48-1.25,3.27-1.18,4.61,0.5c4.22,5.24,8.33,10.57,12.49,15.86c0.53,0.68,0.41,1.15-0.36,1.56
	C535.86,290.99,534.33,291.32,532.51,291.31z"/>
<path d="M532.34,318.98c0.96,0.34,1.92,0.68,2.87,1.03c1.14,0.41,2.32,0.84,3.51,0.72c2.26-0.23,3.58,0.8,4.78,2.61
	c2.21,3.32,4.65,6.49,6.99,9.73c0.92,1.26,1.13,2.61,0.32,4c-0.75,1.28-1.94,1.69-3.36,1.56c-0.75-0.06-1.41-0.36-1.85-0.95
	c-4.54-6.08-9.05-12.18-13.57-18.27C532.14,319.26,532.24,319.12,532.34,318.98z"/>
<path d="M534.44,267.86c-0.02-1.74,0.59-2.87,2.07-3.4c1.49-0.53,2.86-0.23,3.84,1.03c3.9,5.07,7.76,10.16,11.63,15.26
	c0.25,0.33,0.7,0.68,0.45,1.14c-0.29,0.52-0.78,0.18-1.18,0.09c-1.69-0.38-3.27,0.05-4.78,0.71c-0.86,0.38-1.37,0.22-1.93-0.52
	c-3.05-4.06-6.15-8.08-9.23-12.12C534.76,269.34,534.35,268.58,534.44,267.86z"/>
<path d="M559.95,332.64c0,1.65-0.62,2.72-2.02,3.24c-1.5,0.56-2.87,0.23-3.85-0.98c-1.68-2.08-3.24-4.25-4.84-6.39
	c-1.6-2.14-3.16-4.31-4.8-6.42c-0.69-0.88-0.54-1.27,0.51-1.57c1.41-0.41,2.81-0.87,4.19-1.4c0.84-0.32,1.41-0.25,1.97,0.52
	c2.71,3.7,5.46,7.36,8.2,11.04C559.78,331.32,559.97,332.04,559.95,332.64z"/>
<path d="M564.43,324.99c-0.12,1.43-0.78,2.51-2.08,3.11c-1.26,0.59-2.56,0.48-3.48-0.55c-2.53-2.8-4.52-6.01-6.8-9.01
	c-0.39-0.52-0.17-0.92,0.31-1.23c1.24-0.82,2.24-1.92,3.25-2.99c0.69-0.73,1.21-0.76,1.82,0.09c2.04,2.84,4.12,5.64,6.18,8.47
	C564.09,323.51,564.39,324.21,564.43,324.99z"/>
<ellipse class="st2" cx="541.03" cy="300.17" rx="22.17" ry="21.23"/>
</svg>
